<?xml version="1.0" standalone="no"?>
<!DOCTYPE svg PUBLIC "-//W3C//DTD SVG 20010904//EN"
 "http://www.w3.org/TR/2001/REC-SVG-20010904/DTD/svg10.dtd">
<svg version="1.0" xmlns="http://www.w3.org/2000/svg"
 width="150.000000pt" height="168.000000pt" viewBox="0 0 150.000000 168.000000"
 preserveAspectRatio="xMidYMid meet">
<metadata>
Created by potrace 1.16, written by Peter Selinger 2001-2019
</metadata>
<g transform="translate(0.000000,168.000000) scale(0.100000,-0.100000)"
fill="#000000" stroke="none">
<path d="M741 1566 c-9 -11 -10 -24 -2 -53 6 -21 11 -56 11 -77 0 -41 -57
-262 -73 -283 -5 -7 -25 -13 -44 -13 -18 0 -53 -10 -76 -21 -23 -12 -73 -51
-110 -88 -65 -62 -151 -179 -195 -266 -26 -50 -52 -148 -52 -195 0 -66 21
-153 52 -214 18 -36 59 -89 98 -129 92 -91 149 -116 298 -129 81 -7 130 -7
169 1 31 6 79 22 107 34 28 13 74 42 102 65 28 22 70 68 92 102 23 34 51 91
62 127 11 36 20 93 20 127 0 33 -7 89 -15 124 -16 67 -60 161 -103 221 -60 82
-140 164 -197 202 -33 21 -74 42 -92 45 -17 3 -34 12 -36 18 -3 7 7 57 22 112
18 62 33 99 41 99 7 0 26 -31 42 -70 16 -38 43 -84 60 -102 17 -18 58 -43 92
-57 65 -27 212 -66 246 -66 12 0 20 7 20 17 0 26 -85 193 -118 233 -17 20 -54
49 -83 65 -49 27 -63 30 -147 30 -81 1 -95 3 -104 20 -6 10 -14 44 -17 74 -5
51 -8 56 -32 59 -14 2 -31 -4 -38 -12z m301 -271 c33 -26 57 -49 53 -53 -4 -4
-10 -1 -12 6 -3 6 -13 12 -22 12 -10 0 -37 14 -59 30 -23 17 -44 30 -47 30 -3
0 -19 10 -35 22 -20 14 -26 24 -18 29 6 4 27 -1 46 -11 19 -11 62 -40 94 -65z
m-73 -953 c-7 -15 -24 -41 -36 -57 -24 -33 -82 -80 -89 -72 -3 2 17 27 43 54
56 59 83 93 83 107 0 5 3 6 7 3 3 -4 0 -19 -8 -35z m-351 -122 c23 -12 42 -26
42 -31 0 -15 -37 -10 -50 6 -7 8 -18 15 -24 15 -6 0 -22 11 -36 23 -26 23 -60
71 -60 84 0 4 19 -11 43 -34 23 -23 61 -51 85 -63z m199 -27 c-4 -3 -10 -3
-14 0 -3 4 0 7 7 7 7 0 10 -3 7 -7z"/>
</g>
</svg>
