<?xml version="1.0" standalone="no"?>
<!DOCTYPE svg PUBLIC "-//W3C//DTD SVG 20010904//EN"
 "http://www.w3.org/TR/2001/REC-SVG-20010904/DTD/svg10.dtd">
<svg version="1.0" xmlns="http://www.w3.org/2000/svg"
 width="232.000000pt" height="238.000000pt" viewBox="0 0 232.000000 238.000000"
 preserveAspectRatio="xMidYMid meet">
<metadata>
Created by potrace 1.16, written by Peter Selinger 2001-2019
</metadata>
<g transform="translate(0.000000,238.000000) scale(0.100000,-0.100000)"
fill="#000000" stroke="none">
<path d="M1233 2288 c-6 -7 -13 -21 -16 -30 -4 -10 -10 -18 -15 -18 -5 0 -15
7 -22 15 -7 8 -20 15 -30 15 -9 0 -48 -11 -86 -25 -38 -14 -76 -25 -85 -25 -9
0 -27 -8 -40 -18 -22 -19 -22 -19 8 -73 16 -30 42 -76 57 -103 23 -39 25 -50
15 -57 -8 -5 -21 -6 -29 -2 -8 3 -47 8 -85 11 -48 3 -89 -1 -129 -13 -32 -9
-67 -26 -77 -36 -12 -12 -19 -33 -19 -58 0 -22 5 -41 13 -44 7 -2 39 0 72 5
38 6 83 5 126 -2 117 -18 122 -16 162 41 24 35 61 67 112 100 76 49 76 49 35
100 -22 28 -40 55 -40 60 0 6 8 4 19 -3 32 -23 101 -88 101 -95 0 -5 -41 -44
-92 -88 -89 -78 -116 -105 -155 -154 -18 -22 -20 -23 -57 -7 -63 26 -201 20
-281 -13 -110 -45 -169 -71 -195 -85 -14 -8 -29 -27 -35 -43 -5 -16 -52 -78
-103 -138 -51 -60 -91 -113 -89 -119 2 -6 19 -12 38 -13 19 -1 38 -2 42 -2 5
-1 -5 -20 -22 -43 -16 -24 -40 -79 -51 -123 -12 -44 -31 -103 -42 -131 -10
-28 -20 -70 -21 -95 -2 -44 -2 -44 41 -47 32 -2 42 -7 42 -21 0 -9 -4 -21 -9
-27 -6 -5 -15 -39 -20 -76 -9 -52 -8 -80 4 -135 8 -37 17 -78 21 -90 4 -13 19
-26 38 -33 29 -9 31 -13 31 -57 0 -33 9 -65 29 -103 33 -64 102 -150 120 -150
7 0 19 14 27 32 8 17 20 34 28 36 11 4 13 -4 8 -39 -4 -32 -1 -56 12 -84 10
-22 30 -55 45 -72 19 -23 36 -33 56 -33 15 0 38 6 51 12 54 29 89 61 96 89 5
16 13 30 18 32 6 1 11 -14 13 -33 2 -19 8 -40 14 -47 7 -9 18 -7 44 8 57 32
85 50 156 104 37 27 85 64 108 80 24 17 52 44 65 60 12 17 28 46 35 65 7 19
20 43 28 53 8 9 25 17 37 17 13 0 28 7 36 16 10 12 10 22 1 47 -11 28 -9 34
12 57 13 14 30 41 38 60 21 53 41 146 35 163 -4 11 -26 16 -81 19 -41 2 -80 8
-86 14 -8 8 -8 18 -2 30 15 30 32 89 32 112 0 12 5 22 11 22 7 0 9 -10 5 -28
-4 -15 -9 -46 -13 -69 -4 -31 -2 -44 8 -48 8 -2 45 -6 84 -7 65 -3 71 -5 83
-30 7 -16 19 -28 26 -28 8 0 17 7 20 16 3 9 6 68 6 133 0 140 -9 161 -70 161
-21 0 -42 5 -45 10 -4 6 16 10 52 10 36 0 67 6 79 14 17 13 18 17 5 38 -30 48
-48 94 -54 138 -8 62 -37 148 -63 190 -12 20 -38 50 -57 67 -43 38 -194 112
-243 120 -19 3 -37 9 -39 13 -9 14 6 39 27 46 11 3 26 0 36 -9 9 -9 62 -39
117 -68 55 -28 112 -60 127 -71 24 -17 74 -96 120 -190 10 -20 18 -49 18 -64
0 -15 5 -45 11 -68 6 -22 15 -59 21 -81 15 -57 29 -85 45 -85 7 0 16 8 19 18
3 9 10 25 15 34 5 10 9 27 9 37 0 11 5 23 10 26 6 3 10 17 10 30 0 13 5 27 10
30 6 3 10 15 10 26 0 10 9 24 20 31 11 7 20 17 19 23 0 5 -16 30 -35 55 -19
25 -50 69 -70 99 -24 36 -33 56 -26 63 7 7 29 -18 67 -76 31 -47 65 -92 74
-99 9 -6 21 -23 27 -37 6 -14 27 -45 45 -70 33 -44 51 -76 63 -113 8 -25 -13
-10 -23 16 -10 27 -100 147 -109 147 -10 0 -52 -67 -52 -82 0 -6 -9 -37 -19
-67 -27 -80 -32 -109 -21 -116 6 -4 17 -22 25 -41 8 -19 19 -34 25 -34 5 0 18
9 27 20 10 11 23 20 31 20 7 0 22 -16 33 -35 12 -20 29 -35 40 -35 10 0 24 9
31 20 7 11 17 20 22 20 5 0 19 -9 31 -20 11 -11 32 -21 45 -22 17 -2 27 4 36
21 10 20 10 31 -3 63 -15 38 -15 39 11 63 14 13 26 31 26 39 0 9 -9 31 -20 51
-11 20 -20 44 -20 53 0 10 14 29 31 41 32 23 32 23 -15 63 -25 22 -46 48 -46
59 0 12 10 23 25 29 14 5 25 15 25 22 0 7 -39 54 -87 104 -80 84 -93 93 -141
103 -29 6 -71 11 -93 11 -22 0 -56 -7 -76 -15 -19 -8 -39 -15 -44 -15 -20 0
-7 26 31 65 21 22 60 81 86 130 25 50 53 98 63 109 9 10 44 31 79 47 35 16 62
35 62 43 0 8 -11 28 -25 44 -25 30 -25 30 -82 1 -32 -16 -63 -29 -69 -29 -6 0
-23 -11 -38 -25 -16 -15 -26 -35 -26 -53 0 -16 -11 -56 -24 -88 -29 -70 -95
-184 -107 -184 -4 0 -12 6 -16 13 -4 7 -30 21 -57 32 -28 10 -59 28 -71 41
-21 22 -23 23 -86 9 -35 -7 -77 -18 -92 -24 -16 -6 -30 -11 -32 -11 -3 0 -2 6
1 14 8 21 70 48 128 55 45 6 51 9 50 29 0 12 3 22 8 22 5 0 18 -16 29 -35 11
-19 42 -50 69 -70 26 -19 51 -35 54 -35 4 0 14 17 23 38 11 26 15 64 14 131
-1 53 -8 109 -16 127 -10 23 -36 49 -86 81 -39 27 -78 53 -86 58 -10 7 -17 5
-24 -7 -6 -10 -18 -18 -28 -18 -9 0 -27 14 -39 30 -14 19 -32 30 -46 30 -13 0
-28 -6 -33 -12z m207 -167 c5 -11 10 -24 10 -30 0 -6 -16 -11 -35 -11 -19 0
-35 2 -35 5 0 11 33 55 41 55 4 0 13 -9 19 -19z m-80 -68 c0 -28 -16 -45 -36
-41 -10 2 -20 11 -22 21 -2 10 5 21 20 26 13 6 26 10 31 10 4 1 7 -7 7 -16z
m206 -314 c3 -6 0 -15 -7 -20 -22 -13 -49 -11 -49 5 0 13 13 20 42 25 4 0 10
-4 14 -10z m-478 -86 c-27 -58 -54 -103 -60 -103 -4 0 -8 2 -8 5 0 8 24 59 38
83 8 12 19 22 24 22 5 0 8 -3 6 -7z m-380 -45 c7 -7 12 -20 12 -30 0 -13 -8
-18 -25 -18 -27 0 -41 20 -31 45 7 18 28 19 44 3z m1098 -26 c-4 -3 -14 2 -24
12 -16 18 -16 18 6 6 13 -6 21 -14 18 -18z m-1002 -19 c-4 -21 -11 -48 -15
-61 -13 -33 -11 -129 2 -171 39 -121 78 -201 112 -229 17 -14 38 -11 97 15 19
9 81 64 138 122 103 106 103 106 99 161 -3 30 -9 73 -15 95 -6 22 -10 41 -8
42 1 2 8 -9 15 -25 8 -15 17 -35 22 -44 5 -10 9 -40 9 -68 0 -42 4 -54 27 -73
78 -65 105 -93 119 -123 9 -19 14 -41 10 -49 -3 -8 -12 -15 -21 -15 -10 0 -15
10 -15 28 -1 19 -19 47 -66 97 -61 64 -67 68 -77 50 -19 -36 -170 -185 -217
-215 -61 -39 -103 -47 -134 -26 -14 8 -41 48 -60 88 -24 48 -41 105 -52 163
-8 49 -18 93 -23 98 -9 9 -159 -36 -220 -66 -24 -12 -46 -27 -48 -34 -8 -20
-23 -15 -23 7 0 13 11 25 33 34 17 8 52 23 77 34 25 10 74 25 108 33 35 7 67
20 72 29 4 8 11 35 15 60 8 51 21 80 36 80 6 0 7 -14 3 -37z m216 -33 c0 -5
-5 -10 -11 -10 -5 0 -7 5 -4 10 3 6 8 10 11 10 2 0 4 -4 4 -10z m870 -25 c7
-8 8 -15 2 -15 -5 0 -15 7 -22 15 -7 8 -8 15 -2 15 5 0 15 -7 22 -15z m-50
-19 c0 -3 -4 -8 -10 -11 -5 -3 -10 -1 -10 4 0 6 5 11 10 11 6 0 10 -2 10 -4z
m-1145 -413 c-9 -21 -23 -45 -32 -55 -9 -10 -24 -18 -33 -18 -9 0 -20 -4 -25
-9 -6 -5 -39 -18 -75 -30 -36 -12 -75 -27 -87 -33 -22 -11 -23 -16 -23 -154 0
-143 0 -143 40 -185 22 -23 40 -44 40 -46 0 -3 -12 -3 -27 -1 -18 2 -35 15
-50 37 -22 33 -23 40 -22 272 0 137 4 241 10 244 5 4 9 -23 9 -66 0 -80 -9
-74 85 -54 56 12 117 49 152 92 20 24 39 43 44 43 5 0 2 -17 -6 -37z m-15
-122 c0 -9 4 -21 8 -26 5 -6 14 -26 21 -45 28 -76 76 -162 101 -180 22 -16 31
-17 64 -7 21 7 72 41 114 75 43 35 82 67 88 70 5 4 18 18 27 31 16 24 16 24
26 -1 5 -14 15 -28 21 -30 6 -2 19 -28 29 -58 10 -30 17 -57 15 -59 -8 -9 -32
22 -54 71 -13 29 -26 55 -27 57 -2 3 -41 -32 -87 -77 -46 -45 -100 -89 -119
-97 -20 -8 -50 -15 -66 -15 -21 0 -38 10 -62 37 -33 38 -99 169 -99 197 0 8
-4 18 -10 21 -5 3 -10 20 -10 36 0 18 4 28 10 24 6 -3 10 -14 10 -24z m480
-11 c0 -11 -7 -20 -15 -20 -8 0 -15 9 -15 20 0 11 7 20 15 20 8 0 15 -9 15
-20z m128 -37 c2 -7 -4 -13 -15 -13 -10 0 -33 -9 -51 -20 -18 -11 -35 -20 -37
-20 -3 0 -5 5 -5 11 0 23 55 60 84 56 11 -1 21 -8 24 -14z m-648 -261 c0 -4
-17 -24 -37 -44 -38 -36 -83 -58 -83 -39 0 5 15 19 33 30 18 11 42 29 52 41
19 20 35 26 35 12z m665 -22 c3 -5 -11 -24 -31 -42 -96 -83 -168 -164 -159
-178 3 -5 1 -11 -4 -14 -5 -4 -17 1 -25 10 -9 8 -16 19 -16 23 0 4 28 29 63
54 66 49 97 80 118 119 12 23 28 38 41 38 4 0 10 -4 13 -10z m-698 -82 c5 -7
16 -33 23 -58 20 -64 58 -141 83 -167 11 -13 28 -23 37 -23 25 0 101 52 142
98 20 22 44 54 52 71 9 16 16 44 16 61 0 16 4 30 9 30 5 0 13 -9 16 -20 4 -11
18 -34 32 -50 14 -17 23 -34 19 -37 -3 -3 -15 2 -27 13 -21 19 -22 19 -43 -10
-99 -136 -166 -190 -228 -184 -26 2 -39 12 -63 48 -17 25 -41 79 -54 120 -14
41 -28 79 -33 85 -11 12 -10 35 1 35 5 0 13 -6 18 -12z"/>
</g>
</svg>
