<?xml version="1.0" standalone="no"?>
<!DOCTYPE svg PUBLIC "-//W3C//DTD SVG 20010904//EN"
 "http://www.w3.org/TR/2001/REC-SVG-20010904/DTD/svg10.dtd">
<svg version="1.0" xmlns="http://www.w3.org/2000/svg"
 width="150.000000pt" height="135.000000pt" viewBox="0 0 150.000000 135.000000"
 preserveAspectRatio="xMidYMid meet">
<metadata>
Created by potrace 1.16, written by Peter Selinger 2001-2019
</metadata>
<g transform="translate(0.000000,135.000000) scale(0.100000,-0.100000)"
fill="#000000" stroke="none">
<path d="M292 1220 c-48 -29 -77 -103 -92 -227 -9 -78 -9 -118 0 -175 19 -118
47 -191 92 -243 23 -26 61 -56 85 -66 40 -17 43 -21 42 -56 0 -21 -8 -60 -18
-87 -17 -50 -43 -77 -58 -62 -4 4 -10 42 -13 84 -3 41 -10 77 -16 79 -5 2 -18
-13 -27 -32 -21 -44 -22 -140 -2 -179 17 -32 20 -82 5 -91 -6 -3 -10 -15 -10
-26 0 -21 33 -59 52 -59 7 0 32 22 57 48 26 27 60 56 77 65 16 8 58 44 92 79
63 63 63 63 95 44 97 -56 112 -61 184 -61 72 0 72 0 120 47 30 29 63 50 88 57
22 6 63 28 90 49 29 22 66 64 90 102 31 51 39 75 40 112 0 36 -6 52 -24 72
-36 38 -122 76 -173 76 -23 0 -74 -11 -113 -25 -195 -71 -261 -127 -315 -272
-25 -67 -45 -101 -84 -142 -28 -31 -60 -63 -71 -72 -11 -10 -24 -14 -28 -9 -5
4 -4 16 2 26 5 11 21 44 36 74 29 63 89 157 159 253 43 59 58 71 132 107 45
22 91 40 101 40 10 1 36 13 58 28 24 16 49 46 64 75 21 42 22 53 13 85 -7 22
-9 67 -5 109 5 58 3 77 -11 98 -26 39 -57 47 -126 31 -33 -8 -75 -24 -93 -35
-17 -11 -56 -35 -86 -52 -29 -18 -62 -46 -72 -63 -26 -42 -34 -108 -18 -137 7
-13 16 -49 19 -79 3 -38 10 -56 20 -58 20 -3 124 123 134 161 5 20 12 27 24
25 13 -3 16 -12 14 -37 -2 -22 -15 -48 -36 -72 -19 -20 -42 -50 -52 -66 -10
-15 -44 -57 -75 -93 -31 -36 -75 -94 -99 -130 -23 -36 -51 -77 -61 -92 -11
-15 -19 -31 -19 -36 0 -5 -7 -15 -15 -22 -13 -11 -15 -8 -15 13 0 31 17 74 41
102 9 11 37 56 63 100 46 80 46 80 46 181 0 67 -4 104 -11 106 -7 2 -15 39
-19 83 -4 44 -14 94 -23 110 -21 41 -116 131 -150 144 -16 6 -38 11 -50 11
-12 0 -37 -9 -55 -20z m85 -172 c-3 -8 -6 -5 -6 6 -1 11 2 17 5 13 3 -3 4 -12
1 -19z m523 -40 c0 -12 -10 -32 -22 -45 -22 -24 -38 -30 -38 -14 0 14 44 80
53 81 4 0 7 -10 7 -22z m-472 -73 c10 -4 21 1 29 11 7 10 13 13 13 8 0 -6 -6
-16 -12 -23 -9 -8 -12 -38 -11 -89 2 -58 6 -80 19 -89 14 -10 14 -17 4 -48 -7
-20 -9 -51 -6 -68 3 -18 1 -39 -4 -47 -9 -13 -11 -13 -20 0 -5 8 -10 23 -10
32 0 24 -30 98 -40 98 -4 0 -10 6 -13 14 -4 11 1 14 21 13 26 -2 27 -1 23 47
-2 28 -10 61 -19 75 -9 15 -27 39 -41 54 -26 29 -26 29 1 22 22 -6 29 -3 35
11 7 17 8 17 11 2 2 -9 11 -19 20 -23z m102 -100 c0 -3 -2 -5 -5 -5 -3 0 -5 2
-5 5 0 3 2 5 5 5 3 0 5 -2 5 -5z m-33 -57 c-3 -8 -6 -5 -6 6 -1 11 2 17 5 13
3 -3 4 -12 1 -19z m-140 -15 c-4 -3 -10 -3 -14 0 -3 4 0 7 7 7 7 0 10 -3 7 -7z
m626 -133 c-3 -11 -3 -27 1 -35 5 -13 10 -13 41 2 19 9 37 14 41 11 3 -4 3
-15 0 -25 -4 -14 -25 -24 -69 -35 -34 -9 -76 -22 -94 -29 -36 -15 -59 -4 -29
13 27 15 81 70 95 97 7 11 13 21 15 21 2 0 2 -9 -1 -20z m-156 -57 c-4 -3 -7
0 -7 7 0 7 3 10 7 7 3 -4 3 -10 0 -14z m62 -100 c57 -28 71 -38 54 -40 -12 -3
-31 1 -42 6 -26 14 -114 14 -128 0 -6 -6 -22 -17 -35 -25 -59 -34 -88 -47 -93
-42 -11 11 8 37 48 64 23 16 55 39 70 51 16 13 33 23 39 23 6 0 45 -17 87 -37z
m-452 -110 c-4 -3 -7 0 -7 7 0 7 3 10 7 7 3 -4 3 -10 0 -14z m-35 -115 c-7 -7
-12 -19 -12 -27 -1 -9 -11 -29 -24 -45 -16 -19 -26 -24 -31 -16 -4 6 0 19 9
29 9 10 16 21 16 26 0 10 43 52 49 48 3 -2 -1 -9 -7 -15z"/>
</g>
</svg>
